<?xml version="1.0" encoding="UTF-8" standalone="no"?>
<!DOCTYPE svg PUBLIC "-//W3C//DTD SVG 1.1//EN" "http://www.w3.org/Graphics/SVG/1.1/DTD/svg11.dtd">
<svg version="1.1" xmlns="http://www.w3.org/2000/svg" xmlns:xlink="http://www.w3.org/1999/xlink" preserveAspectRatio="xMidYMid meet" viewBox="0 0 240 240" width="240" height="240"><defs><path d="M100.74 76.12C100.74 73.55 100.87 72.69 101.27 71.37C102.33 67.74 105.9 65.04 110.14 65.04C114.37 65.04 117.95 67.81 119.01 71.37C119.4 72.69 119.54 73.55 119.54 76.12C119.54 78.3 119.54 95.72 119.54 97.9C119.54 99.22 119.54 100.54 119.27 101.72C118.54 105.02 115.57 107.99 112.26 108.72C111.07 108.98 109.74 108.98 108.42 108.98C106.23 108.98 88.76 108.98 86.58 108.98C84 108.98 83.14 108.85 81.81 108.45C78.24 107.4 75.46 103.83 75.46 99.61C75.46 95.39 78.24 91.83 81.81 90.77C83.14 90.37 84 90.24 86.58 90.24C87.52 90.24 92.24 90.24 100.74 90.24C100.74 81.77 100.74 77.07 100.74 76.12ZM61.43 188.95C61.43 127.23 61.43 92.94 61.43 86.09C61.43 84.77 61.89 83.65 62.82 82.72C65.86 79.69 90.16 55.47 93.2 52.44C94.12 51.51 95.25 51.05 96.57 51.05C102.04 51.05 129.37 51.05 178.57 51.05L178.57 188.95L61.43 188.95ZM188.96 27.69C179.41 27.69 103.01 27.69 93.46 27.69C92.4 27.69 91.34 27.76 90.62 27.83C86.25 28.22 82.34 30.27 79.23 33.37C75.68 36.91 47.25 65.26 43.69 68.8C40.58 71.9 38.53 75.79 38.13 80.15C38.07 80.87 38 81.93 38 82.99C38 94.62 38 187.67 38 199.31C38 200.82 38.07 201.62 38.13 202.21C38.66 207.16 43.16 211.64 48.13 212.17C48.72 212.24 49.52 212.31 51.04 212.31C64.83 212.31 175.17 212.31 188.96 212.31C190.48 212.31 191.28 212.24 191.87 212.17C196.84 211.64 201.34 207.16 201.87 202.21C201.93 201.62 202 200.82 202 199.31C202 183.45 202 56.55 202 40.69C202 39.18 201.93 38.38 201.87 37.79C201.34 32.84 196.84 28.35 191.87 27.83C191.28 27.76 190.48 27.69 188.96 27.69Z" id="l16qJhgxwG"></path></defs><g><g><g><use xlink:href="#l16qJhgxwG" opacity="1" fill="#000000" fill-opacity="1"></use><g><use xlink:href="#l16qJhgxwG" opacity="1" fill-opacity="0" stroke="#000000" stroke-width="1" stroke-opacity="0"></use></g></g></g></g></svg>